<?xml version="1.0" encoding="UTF-8"?> <svg xmlns="http://www.w3.org/2000/svg" width="113" height="40" viewBox="0 0 113 40" fill="none"><path fill-rule="evenodd" clip-rule="evenodd" d="M80.101 38.102H70.2852V1.85559H80.0444L88.8758 8.42783L92.8631 20.0001L88.8758 30.078L80.101 38.102ZM72.2186 36.1757H79.3503L87.2469 28.9519L90.8092 19.9505L87.2469 9.61763L79.407 3.78193H72.2186V36.1757Z" fill="#ECECEC"></path><path d="M109.526 38.102H96.502V2.81873H98.4283V36.1757H109.526V38.102Z" fill="#ECECEC"></path><path d="M100.142 2.8187C100.142 4.36969 98.8814 5.63031 97.3304 5.63031C95.7723 5.63031 94.5117 4.36969 94.5117 2.8187C94.5117 1.26062 95.7723 0 97.3304 0C98.8814 0 100.142 1.26062 100.142 2.8187Z" fill="#ED7D30"></path><path d="M100.284 13.9023C100.284 15.4533 99.0232 16.7139 97.4652 16.7139C95.9142 16.7139 94.6465 15.4533 94.6465 13.9023C94.6465 12.3442 95.9142 11.0836 97.4652 11.0836C99.0232 11.0836 100.284 12.3442 100.284 13.9023Z" fill="#ED7D30"></path><path d="M100.284 26.1473C100.284 27.7054 99.0232 28.966 97.4652 28.966C95.9142 28.966 94.6465 27.7054 94.6465 26.1473C94.6465 24.5892 95.9142 23.3286 97.4652 23.3286C99.0232 23.3286 100.284 24.5892 100.284 26.1473Z" fill="#ED7D30"></path><path d="M100.284 37.1811C100.284 38.7392 99.0232 39.9998 97.4652 39.9998C95.9142 39.9998 94.6465 38.7392 94.6465 37.1811C94.6465 35.623 95.9142 34.3624 97.4652 34.3624C99.0232 34.3624 100.284 35.623 100.284 37.1811Z" fill="#ED7D30"></path><path d="M112.344 37.1812C112.344 38.7393 111.084 39.9999 109.526 39.9999C107.975 39.9999 106.707 38.7393 106.707 37.1812C106.707 35.6232 107.975 34.3625 109.526 34.3625C111.084 34.3625 112.344 35.6232 112.344 37.1812Z" fill="#ED7D30"></path><path d="M94.6479 19.9787C94.6479 21.5297 93.3873 22.7903 91.8363 22.7903C90.2782 22.7903 89.0176 21.5297 89.0176 19.9787C89.0176 18.4207 90.2782 17.16 91.8363 17.16C93.3873 17.16 94.6479 18.4207 94.6479 19.9787Z" fill="#ED7D30"></path><path d="M82.5436 2.8187C82.5436 4.36969 81.283 5.63031 79.7249 5.63031C78.1669 5.63031 76.9062 4.36969 76.9062 2.8187C76.9062 1.26062 78.1669 0 79.7249 0C81.283 0 82.5436 1.26062 82.5436 2.8187Z" fill="#ED7D30"></path><path d="M90.8796 29.5114C90.8796 31.0695 89.619 32.3301 88.0609 32.3301C86.5028 32.3301 85.2422 31.0695 85.2422 29.5114C85.2422 27.9605 86.5028 26.6998 88.0609 26.6998C89.619 26.6998 90.8796 27.9605 90.8796 29.5114Z" fill="#ED7D30"></path><path d="M90.8796 9.02267C90.8796 10.5807 89.619 11.8414 88.0609 11.8414C86.5028 11.8414 85.2422 10.5807 85.2422 9.02267C85.2422 7.47168 86.5028 6.21106 88.0609 6.21106C89.619 6.21106 90.8796 7.47168 90.8796 9.02267Z" fill="#ED7D30"></path><path d="M82.5436 37.1388C82.5436 38.6898 81.283 39.9504 79.7249 39.9504C78.1669 39.9504 76.9062 38.6898 76.9062 37.1388C76.9062 35.5807 78.1669 34.3201 79.7249 34.3201C81.283 34.3201 82.5436 35.5807 82.5436 37.1388Z" fill="#ED7D30"></path><path d="M74.0659 2.8187C74.0659 4.36969 72.8052 5.63031 71.2472 5.63031C69.6962 5.63031 68.4355 4.36969 68.4355 2.8187C68.4355 1.26062 69.6962 0 71.2472 0C72.8052 0 74.0659 1.26062 74.0659 2.8187Z" fill="#ED7D30"></path><path d="M74.0659 13.8525C74.0659 15.4106 72.8052 16.6712 71.2472 16.6712C69.6962 16.6712 68.4355 15.4106 68.4355 13.8525C68.4355 12.2944 69.6962 11.0338 71.2472 11.0338C72.8052 11.0338 74.0659 12.2944 74.0659 13.8525Z" fill="#ED7D30"></path><path d="M74.0659 26.098C74.0659 27.6561 72.8052 28.9167 71.2472 28.9167C69.6962 28.9167 68.4355 27.6561 68.4355 26.098C68.4355 24.547 69.6962 23.2793 71.2472 23.2793C72.8052 23.2793 74.0659 24.547 74.0659 26.098Z" fill="#ED7D30"></path><path d="M74.0659 37.1386C74.0659 38.6896 72.8052 39.9503 71.2472 39.9503C69.6962 39.9503 68.4355 38.6896 68.4355 37.1386C68.4355 35.5806 69.6962 34.3199 71.2472 34.3199C72.8052 34.3199 74.0659 35.5806 74.0659 37.1386Z" fill="#ED7D30"></path><path d="M5.29871 13.6898C5.87945 13.2083 6.38228 12.7479 6.93469 12.3513C8.92477 10.9278 11.1344 10.1771 13.5919 10.3541C16.0282 10.5383 17.9333 11.7281 19.3851 13.6686C19.6188 13.9731 19.8455 14.2918 20.1075 14.6459C20.2775 14.4476 20.412 14.2918 20.5466 14.136C22.3738 12.0397 24.6542 10.772 27.4304 10.4179C29.7463 10.1275 31.9276 10.517 33.9106 11.7777C35.4616 12.7621 36.5735 14.1219 37.2392 15.8428C37.6783 16.9901 37.8412 18.1799 37.8412 19.4051C37.8412 25.6846 37.8412 31.9665 37.8412 38.2508C37.8412 39.0581 37.6217 39.2777 36.8355 39.2777C35.7732 39.2777 34.7133 39.2777 33.6557 39.2777C32.7845 39.2777 32.5721 39.0652 32.5721 38.1941C32.5721 32.0326 32.5721 25.8782 32.5721 19.7168C32.5721 18.8102 32.388 17.9462 31.9489 17.1459C31.2336 15.8216 30.0438 15.2621 28.599 15.1275C25.0579 14.8088 22.0338 17.8825 21.701 20.8711C21.6585 21.2536 21.6302 21.6431 21.6302 22.0326C21.6231 27.4646 21.6231 32.9037 21.6231 38.3357C21.6231 39.0581 21.4106 39.2706 20.6741 39.2777C19.5763 39.2777 18.4786 39.2777 17.3738 39.2777C16.6089 39.2777 16.4177 39.0864 16.4177 38.3074C16.4106 32.4151 16.4248 26.5227 16.4035 20.6304C16.4035 19.6601 16.3752 18.6828 16.0211 17.7479C15.3341 15.8995 13.6486 14.9575 11.6585 15.0921C8.41486 15.3117 5.62449 18.5057 5.25622 21.5935C5.22789 21.8272 5.23497 22.068 5.23497 22.3017C5.23497 27.6558 5.23497 33.0076 5.23497 38.357C5.23497 39.0298 5.00126 39.2706 4.30721 39.2777C3.20948 39.2777 2.10466 39.2777 1.00693 39.2777C0.213725 39.2777 0.0295893 39.0935 0.0295893 38.2862C0.0295893 29.6884 0.0295893 21.0907 0.0295893 12.493C0.0295893 12.2168 0.0154249 11.9406 0.00126064 11.6643C-0.0199858 11.1898 0.22789 10.8641 0.702394 10.857C1.96774 10.8381 3.23544 10.8381 4.50551 10.857C4.99418 10.857 5.22789 11.1403 5.23497 11.636C5.24205 12.2168 5.23497 12.8046 5.24205 13.3924C5.24205 13.4632 5.27038 13.5411 5.29871 13.6898Z" fill="white"></path><path fill-rule="evenodd" clip-rule="evenodd" d="M61.8361 13.1656C61.8361 17.0655 61.8361 20.9655 61.8361 24.8654C61.8361 25.5028 61.8645 25.5382 62.4948 25.5382C63.8191 25.5382 65.1364 25.5311 66.4608 25.5382C67.0415 25.5382 67.1832 25.6798 67.1832 26.2535C67.1832 27.1553 67.1832 28.0594 67.1832 28.9659C67.1832 29.5396 66.9919 29.7379 66.4041 29.745C65.0656 29.752 63.7271 29.745 62.3956 29.745C61.8432 29.745 61.8361 29.745 61.8361 30.2974C61.8361 32.9603 61.8361 35.6232 61.8361 38.286C61.8361 38.9234 61.7299 39.0297 61.0783 39.0297C59.8697 39.0344 58.6586 39.0344 57.4452 39.0297C56.8857 39.0297 56.7299 38.8739 56.7299 38.3073C56.7299 35.6727 56.7299 33.0405 56.7299 30.4107C56.7299 29.745 56.7299 29.745 56.0854 29.745C50.8871 29.745 45.6912 29.745 40.4976 29.745C39.5982 29.745 39.4282 29.575 39.4282 28.6685C39.4282 27.4433 39.407 26.2181 39.4424 24.9928C39.4494 24.6883 39.5415 24.3484 39.7186 24.1076C42.3602 20.4461 45.0231 16.8059 47.6718 13.1586C50.5897 9.15006 53.5075 5.14156 56.4112 1.12598C56.652 0.786038 56.9211 0.630234 57.346 0.637316C58.5854 0.658562 59.8248 0.644396 61.0713 0.644396C61.6662 0.651478 61.8361 0.821452 61.8361 1.41635C61.8361 5.33514 61.8361 9.25157 61.8361 13.1656ZM56.7299 7.3087C56.6874 7.29926 56.6449 7.28746 56.6024 7.27329C56.5245 7.36536 56.4395 7.45035 56.3687 7.5495C55.5613 8.68264 54.754 9.81579 53.9466 10.956C51.3191 14.6883 48.6917 18.4277 46.0571 22.16C45.3843 23.1161 44.7115 24.0722 44.0458 25.0353C43.9679 25.1416 43.9395 25.2761 43.89 25.4036C44.0316 25.4461 44.1662 25.4957 44.3078 25.5311C44.3503 25.5452 44.3928 25.5382 44.4353 25.5382C48.321 25.5382 52.2068 25.5382 56.0925 25.5382C56.6945 25.5382 56.7299 25.5028 56.7299 24.8937C56.7299 19.1807 56.7299 13.4678 56.7299 7.75488C56.7299 7.60852 56.7299 7.45979 56.7299 7.3087Z" fill="white"></path></svg> 